{"title":"Best Laid Plans 2012 BDRip XVID AC3 HQ Hive-CM8","uid":7057330,"size":1802760953,"categoryP":"video","categoryS":"movies","magnet":"?xt=urn:btih:e858c9633f825a4d50b72bfbd026298ba12a6f32&amp;dn=Best+Laid+Plans+2012+BDRip+XVID+AC3+HQ+Hive-CM8&amp;tr=udp%3A%2F%2Ftracker.openbittorrent.com%3A80&amp;tr=udp%3A%2F%2Fopen.demonii.com%3A1337&amp;tr=udp%3A%2F%2Ftracker.coppersurfer.tk%3A6969&amp;tr=udp%3A%2F%2Fexodus.desync.com%3A6969","seeders":0,"leechers":0,"uploader":"crazy-torrent","files":3,"time":1330181668,"description":" &lt;a href=&quot;http://www.scenespeeds.com/&quot; rel=&quot;nofollow&quot; target=&quot;_NEW&quot;&gt;http://www.scenespeeds.com/&lt;/a&gt;\n\n Description\nSource: Bluray \nVideo: 720x304 @bitrate 1700 2pass \nAudio: English DTS to AC3 5.1 @448 \nSample: yes included \nSubs: yes english in srt /subs \n &lt;a href=&quot;\nhttp://www.imdb.com/title/tt1764198/&quot; rel=&quot;nofollow&quot; target=&quot;_NEW&quot;&gt;\nhttp://www.imdb.com/title/tt1764198/&lt;/a&gt; \n\nGeneral \nComplete name: Best.Laid.Plans.2012.BDRip.XVID.AC3.HQ.Hive-CM8.avi \nFormat: AVI \nFormat/Info: Audio Video Interleave \nFile size: 1.68 GiB \nDuration: 1h 47mn \nOverall bit rate: 2 229 Kbps \nWriting application: Nandub v1.0rc2 \nWriting library: Nandub build 1853/release \n\nVideo \nID: 0 \nFormat: MPEG-4 Visual \nFormat profile: Advanced Simple@L5 \nFormat settings, BVOP: 1 \nFormat settings, QPel: Yes \nFormat settings, GMC: No warppoints \nFormat settings, Matrix: Default (H.263) \nMuxing mode: Packed bitstream \nCodec ID: XVID \nCodec ID/Hint: XviD \nDuration: 1h 47mn \nBit rate: 1 772 Kbps \nWidth: 720 pixels \nHeight: 304 pixels \nDisplay aspect ratio: 2.35:1 \nFrame rate: 24.000 fps \nColor space: YUV \nChroma subsampling: 4:2:0 \nBit depth: 8 bits \nScan type: Progressive \nCompression mode: Lossy \nBits/(Pixel*Frame): 0.337 \nStream size: 1.33 GiB (79%) \nWriting library: XviD 1.2.1 (UTC 2008-12-04) \n\nAudio \nID: 1 \nFormat: AC-3 \nFormat/Info: Audio Coding 3 \nMode extension: CM (complete main) \nCodec ID: 2000 \nDuration: 1h 47mn \nBit rate mode: Constant \nBit rate: 448 Kbps \nChannel(s): 6 channels \nChannel positions: Front: L C R, Side: L R, LFE \nSampling rate: 48.0 KHz \nBit depth: 16 bits \nCompression mode: Lossy \nStream size: 345 MiB (20%) \nAlignment: Split accross interleaves \nInterleave, duration: 42 ms (1.00 video frame) \nInterleave, preload duration: 500 ms \n\nDavid Blair directs this powerful British Drama, loosely inspired by John Steinbeck's novel 'Of Mice and Men' \nSet in Nottingham, the film revolves around the relationship between the thuggish Danny (Stephen Graham) and \nJoseph (Adewale Akinnuoye-Agbaje), a giant of a man with a mental age of seven. When Danny finds himself in debt \nto a local crime boss, he feels he is left with no choice but to manipulate Joseph into participating in a series \nof underground cage fights from which Danny can pay his debts \n\nLee Ingleby ... Deano \nPeter Wight ... Roger \nStuart Wolfenden ... Pete \nEmma Stansfield \nKieran Hardcastle ... Cocaine Dealer\n     &lt;a href=&quot;\nhttp://www.scenespeeds.com/&quot; rel=&quot;nofollow&quot; target=&quot;_NEW&quot;&gt;\nhttp://www.scenespeeds.com/&lt;/a&gt;\t","torrent":{"xt":"urn:btih:e858c9633f825a4d50b72bfbd026298ba12a6f32","amp;dn":"Best+Laid+Plans+2012+BDRip+XVID+AC3+HQ+Hive-CM8","amp;tr":["udp%3A%2F%2Ftracker.openbittorrent.com%3A80","udp%3A%2F%2Fopen.demonii.com%3A1337","udp%3A%2F%2Ftracker.coppersurfer.tk%3A6969","udp%3A%2F%2Fexodus.desync.com%3A6969"],"infoHash":"e858c9633f825a4d50b72bfbd026298ba12a6f32","infoHashBuffer":{"type":"Buffer","data":[232,88,201,99,63,130,90,77,80,183,43,251,208,38,41,139,161,42,111,50]},"announce":[],"urlList":[]}}